# xmcd
# Copyright (C) 1995-1998 Ti Kan
#
# Track frame offsets:
#       150
#       17492
#       30116
#       44419
#
# Disc length: 804 seconds
#
# Revision: 0
# Processed by: cddbd v1.5.2PL0 Copyright (c) Steve Scherf et al.
# Submitted via: CD-Transfer v1.0
#
DISCID=1f032204
DTITLE=Marvin - Holiday
DYEAR=05
DGENRE=
TTITLE0=Dawning
TTITLE1=Holiday
TTITLE2=I Wanna Know
TTITLE3=Wave's Top
EXTD=
EXTT0=
EXTT1=
EXTT2=
EXTT3=
PLAYORDER=
